<svg xmlns="http://www.w3.org/2000/svg" viewBox="0 0 96 96">
	<path fill-rule="evenodd" clip-rule="evenodd" d="M81.359,86.001c-20.724,0-41.447,0-62.171,0c-0.01-0.03-0.022-0.062-0.029-0.093
		c-0.547-2.801-0.675-5.615-0.265-8.445c0.631-4.349,2.278-8.256,5.087-11.653c0.323-0.392,0.667-0.765,1.013-1.159
		c-4.116-4.309-6.887-9.348-8.234-15.151c-1.349-5.809-1.06-11.555,0.761-17.252c-0.084,0.015-0.123,0.02-0.162,0.029
		c-2.066,0.521-4.155,0.585-6.259,0.288c-2.408-0.34-4.646-1.143-6.637-2.553c-1.577-1.118-2.629-2.646-3.285-4.456
		c-0.185-0.509-0.208-0.994,0.147-1.385c-0.297-0.467-0.608-0.892-0.851-1.354c-0.378-0.723-0.551-1.502-0.442-2.322
		c0.033-0.253,0.125-0.5,0.202-0.796c0.646,0.603,1.334,0.99,2.06,1.315c1.299,0.581,2.664,0.947,4.058,1.214
		c2.859,0.547,5.745,0.7,8.646,0.518c1.951-0.122,3.896-0.319,5.789-0.854c1.162-0.329,2.309-0.695,3.362-1.299
		c0.164-0.094,0.326-0.218,0.443-0.365c1.942-2.444,4.301-4.402,6.995-5.959c4.337-2.505,9.033-3.815,14.011-4.179
		c0.386-0.028,0.771-0.06,1.156-0.09c0.891,0,1.78,0,2.67,0c0.07,0.013,0.141,0.03,0.212,0.036c0.839,0.067,1.68,0.109,2.515,0.204
		c3.77,0.428,7.374,1.441,10.776,3.133c3.496,1.739,6.525,4.064,8.913,7.184c0.085,0.111,0.205,0.219,0.332,0.271
		c0.76,0.315,1.511,0.669,2.295,0.91c2.478,0.761,5.034,1.023,7.614,1.071c3.169,0.059,6.302-0.226,9.368-1.069
		c1.307-0.359,2.57-0.829,3.712-1.581c0.181-0.119,0.353-0.251,0.568-0.404c0.069,0.146,0.153,0.266,0.186,0.399
		c0.116,0.486,0.099,0.978,0.027,1.468c-0.133,0.907-0.546,1.686-1.119,2.385c-0.114,0.139-0.14,0.247-0.048,0.405
		c0.232,0.4,0.207,0.825,0.052,1.237c-0.143,0.376-0.312,0.744-0.488,1.106c-0.747,1.533-1.822,2.783-3.268,3.696
		c-3.326,2.104-6.966,2.744-10.834,2.283c-0.485-0.058-0.966-0.166-1.437-0.249c3.142,10.937,1.243,20.922-5.612,29.994
		c0.012,0.015,0.031,0.04,0.053,0.064c0.86,0.975,1.76,1.92,2.572,2.934c1.331,1.658,2.391,3.492,3.288,5.42
		c0.072,0.155,0.082,0.283-0.029,0.422c-0.19,0.24-0.354,0.506-0.561,0.73c-1.277,1.393-2.813,2.402-4.559,3.127
		c-1.071,0.443-2.185,0.471-3.288,0.404c-1.178-0.068-2.18-0.652-3.067-1.428c-1.399-1.222-2.223-2.793-2.793-4.524
		c-0.716-2.175-0.957-4.423-1.008-6.693c-0.039-1.729-0.003-3.46,0-5.19c0-0.082,0-0.162,0-0.289
		c-0.542,0.499-1.037,0.951-1.526,1.41c-0.052,0.048-0.095,0.136-0.094,0.205c0.022,1.235,0.005,2.475,0.092,3.707
		c0.106,1.521,0.279,3.041,0.466,4.556c0.103,0.839,0.22,1.688,0.46,2.494c0.445,1.499,1.072,2.924,2.097,4.142
		c0.706,0.839,1.492,1.59,2.384,2.229c0.721,0.518,1.557,0.724,2.408,0.902c3.821,0.799,7.577-0.717,9.756-3.947
		c0.039-0.058,0.082-0.113,0.137-0.188c0.05,0.096,0.096,0.164,0.121,0.239c0.297,0.896,0.638,1.779,0.873,2.69
		c0.376,1.457,0.618,2.942,0.653,4.449c0.026,1.131,0.021,2.264-0.024,3.395C81.568,84.494,81.442,85.246,81.359,86.001z
		 M69.679,35.831c-0.022-0.121-0.034-0.246-0.069-0.363c-0.472-1.561-1.095-3.059-1.907-4.474
		c-1.645-2.864-3.813-5.273-6.427-7.279c-1.4-1.075-3.012-1.638-4.775-1.669c-2.963-0.053-5.348,1.118-7.134,3.491
		c-0.153,0.204-0.479,0.207-0.627-0.001c-2.4-3.379-6.688-4.311-10.215-2.969c-1.059,0.403-1.974,1.042-2.837,1.75
		c-1.284,1.054-2.439,2.249-3.48,3.539c-4.242,5.259-5.775,11.241-4.587,17.885c0.624,3.491,2.07,6.651,4.323,9.397
		c4.511,5.495,10.341,8.214,17.459,8.15c1.535-0.014,3.044-0.229,4.534-0.586c2.934-0.705,5.6-1.976,8.01-3.787
		c0.145-0.108,0.197-0.227,0.196-0.407c-0.006-1.948-0.003-3.897-0.003-5.847c0-0.078-0.007-0.155-0.011-0.231
		c-4.651-0.06-8.479-3.228-9.58-7.489c-1.051-4.063,0.58-8.363,4.121-10.747c1.757-1.182,3.711-1.743,5.827-1.667
		C65.336,32.628,67.708,33.773,69.679,35.831z M53.841,42.495c0.004,4.607,3.732,8.409,8.408,8.416
		c4.657,0.007,8.434-3.767,8.433-8.421c0-4.644-3.77-8.416-8.41-8.419C57.615,34.068,53.84,37.841,53.841,42.495z M68.815,49.944
		c-1.43,1.2-3.048,1.978-4.864,2.319c0,1.645,0,3.264,0,4.931C66.083,55.086,67.726,52.705,68.815,49.944z"/>
	<path fill-rule="evenodd" clip-rule="evenodd" fill="#FFFFFF" d="M69.679,35.831c-1.971-2.058-4.343-3.203-7.182-3.305
		c-2.116-0.076-4.07,0.485-5.827,1.667c-3.541,2.383-5.172,6.683-4.121,10.747c1.102,4.262,4.929,7.43,9.58,7.489
		c0.004,0.076,0.011,0.153,0.011,0.231c0,1.949-0.003,3.898,0.003,5.847c0.001,0.181-0.052,0.299-0.196,0.407
		c-2.41,1.812-5.076,3.082-8.01,3.787c-1.49,0.357-2.999,0.572-4.534,0.586c-7.118,0.063-12.948-2.655-17.459-8.15
		c-2.253-2.746-3.699-5.906-4.323-9.397c-1.188-6.644,0.345-12.625,4.587-17.885c1.041-1.29,2.196-2.485,3.48-3.539
		c0.863-0.709,1.778-1.348,2.837-1.75c3.526-1.342,7.814-0.41,10.215,2.969c0.147,0.208,0.474,0.206,0.627,0.001
		c1.786-2.373,4.171-3.543,7.134-3.491c1.764,0.031,3.375,0.595,4.775,1.669c2.614,2.006,4.782,4.415,6.427,7.279
		c0.813,1.415,1.436,2.913,1.907,4.474C69.645,35.585,69.656,35.71,69.679,35.831z M36.139,50.814
		c4.384,0.004,7.944-3.545,7.947-7.922c0.004-4.384-3.546-7.944-7.923-7.947c-4.384-0.003-7.943,3.545-7.947,7.922
		C28.213,47.251,31.762,50.812,36.139,50.814z M44.829,48.784c1.199,2.83,2.386,5.63,3.593,8.476
		c1.187-2.857,2.351-5.657,3.521-8.476C49.564,48.784,47.221,48.784,44.829,48.784z"/>
	<path fill-rule="evenodd" clip-rule="evenodd" fill="#FFFFFF" d="M68.815,49.944c-1.09,2.761-2.732,5.142-4.864,7.25
		c0-1.667,0-3.286,0-4.931C65.768,51.922,67.386,51.145,68.815,49.944z"/>
	<path fill-rule="evenodd" clip-rule="evenodd" fill="#3ABFFD" d="M65.537,85.516c0.023,0.289-0.199,0.086-0.291,0.146
		c-0.152-0.093-0.327-0.069-0.49-0.085c-3.512-0.325-7.031-0.532-10.557-0.628c-3.389-0.093-6.777-0.088-10.166,0.019
		c-3.25,0.104-6.495,0.285-9.732,0.588c-0.192,0.018-0.235-0.021-0.19-0.217c0.747-3.273,1.841-6.419,3.485-9.357
		c1.278-2.284,2.832-4.351,4.869-6.021c1.701-1.394,3.6-2.373,5.794-2.722c0.211-0.033,0.432-0.02,0.632-0.117
		c0.582,0,1.165,0,1.747,0c0.022,0.043,0.064,0.043,0.104,0.047c2.238,0.223,4.198,1.121,5.967,2.474
		c2.047,1.565,3.622,3.541,4.929,5.742c1.781,3.003,2.953,6.244,3.754,9.63C65.432,85.184,65.438,85.363,65.537,85.516z"/>
	<path d="M36.139,50.814c-4.377-0.002-7.926-3.563-7.922-7.946c0.003-4.377,3.563-7.926,7.946-7.922
		c4.377,0.003,7.926,3.563,7.923,7.947C44.083,47.27,40.522,50.818,36.139,50.814z M42.581,42.908
		c0.001-3.564-2.889-6.457-6.45-6.458c-3.564-0.001-6.457,2.889-6.458,6.451c-0.002,3.564,2.889,6.457,6.45,6.458
		C39.688,49.359,42.58,46.471,42.581,42.908z"/>
	<path d="M44.829,48.784c2.393,0,4.736,0,7.114,0c-1.171,2.818-2.334,5.619-3.521,8.476C47.215,54.414,46.028,51.613,44.829,48.784z
		"/>
	<path fill-rule="evenodd" clip-rule="evenodd" fill="#FFFFFF" d="M53.841,42.495c0.004,4.607,3.732,8.409,8.408,8.416
		c4.657,0.007,8.434-3.767,8.433-8.421c0-4.644-3.77-8.416-8.41-8.419C57.615,34.068,53.84,37.841,53.841,42.495z"/>
	<path d="M67.5,37.23c1.712,1.59,2.91,4.878,1.486,8.082c-1.417,3.189-4.723,4.782-7.686,4.308
		C63.37,45.485,65.434,41.36,67.5,37.23z"/>
	<path d="M56.848,47.321c-1.921-1.992-2.704-5.538-0.999-8.573c1.708-3.041,5.003-4.039,7.217-3.683
		C60.995,39.147,58.927,43.225,56.848,47.321z"/>
	<path d="M59.589,49.204c2.25-4.347,4.481-8.66,6.727-12.999c0.186,0.138,0.356,0.246,0.5,0.382c0.042,0.04,0.037,0.174,0.004,0.241
		c-0.323,0.668-0.658,1.332-0.989,1.996c-1.733,3.475-3.469,6.949-5.195,10.427c-0.094,0.188-0.188,0.249-0.387,0.169
		C60.047,49.34,59.836,49.283,59.589,49.204z"/>
	<circle fill="#FFFFFF" cx="36.101" cy="42.881" r="6.455"/>
	<path d="M39.749,40.005c0.93,0.957,1.611,3.277,0.338,5.336c-1.255,2.03-3.838,2.793-5.991,1.771
		c-2.156-1.024-3.206-3.504-2.419-5.759c0.877-2.514,3.366-3.425,5.109-3.088c-0.838,0.81-1.17,1.738-0.575,2.81
		c0.36,0.648,0.979,0.922,1.709,0.807C38.978,41.716,39.526,41.011,39.749,40.005z"/>
	<path d="M41.116,74.854c0,0-0.322,3.771,2.096,3.771c2.417,0,2.126-3.771,2.126-3.771s-0.605,2.18-2.18,2.18
		S41.116,74.854,41.116,74.854z"/>
	<path d="M48.008,74.854c0,0-0.322,3.771,2.097,3.771c2.416,0,2.125-3.771,2.125-3.771s-0.605,2.18-2.18,2.18
		S48.008,74.854,48.008,74.854z"/>
	<path d="M54.803,74.854c0,0-0.322,3.771,2.097,3.771c2.418,0,2.126-3.771,2.126-3.771s-0.606,2.18-2.181,2.18
		S54.803,74.854,54.803,74.854z"/>
	<path fill-rule="evenodd" clip-rule="evenodd" fill="#FFFFFF" d="M79.153,71.078c0.101-0.147,0.823,1.887,0.823,1.887
		s-3.185,5.468-9.893,4.135c-6.688-1.329-7.975-8.553-7.877-18.144c0.402-0.503,1.316-1.397,1.591-1.501
		c-0.464,12.607,2.687,17.607,6.868,18.125C72.454,75.802,76.584,74.854,79.153,71.078z"/>
</svg>
